<?xml version="1.0" encoding="UTF-8"?>
<!DOCTYPE svg PUBLIC "-//W3C//DTD SVG 1.1//EN" "http://www.w3.org/Graphics/SVG/1.1/DTD/svg11.dtd">
<!-- Creator: CorelDRAW X8 -->
<svg xmlns="http://www.w3.org/2000/svg" xml:space="preserve" width="3.97854in" height="2.05969in" version="1.1" shape-rendering="geometricPrecision" text-rendering="geometricPrecision" image-rendering="optimizeQuality" fill-rule="evenodd" clip-rule="evenodd"
viewBox="0 0 397854 205969"
 xmlns:xlink="http://www.w3.org/1999/xlink">
 <g id="Layer_x0020_1">
  <metadata id="CorelCorpID_0Corel-Layer"/>
  <g id="_644364336">
   <path fill="black" d="M0 67648l97130 30108c1414,-28049 14168,-53104 33767,-70683l-130897 40575zm300723 30108l97131 -30108 -130898 -40575c19599,17579 32354,42634 33767,70683z"/>
   <path fill="black" d="M87633 103865l9399 1739c1120,44124 30284,81274 70331,94304l-79730 -14788 0 -81255zm213174 2107l11292 -2107 0 81255 -84842 15784c41589,-12010 72244,-49791 73550,-94932zm-92850 98523l-7921 1474 -6559 -1217c1805,95 3621,146 5450,146 3043,0 6054,-141 9030,-403z"/>
   <path fill="black" fill-rule="nonzero" d="M198927 0c28434,0 54177,11526 72810,30159 18634,18634 30159,44376 30159,72811 0,28434 -11525,54177 -30159,72810 -18633,18634 -44376,30159 -72810,30159 -28434,0 -54177,-11525 -72811,-30159 -18633,-18633 -30159,-44376 -30159,-72810 0,-28435 11526,-54177 30159,-72811 18634,-18633 44377,-30159 72811,-30159zm71337 31632c-18257,-18256 -43478,-29549 -71337,-29549 -27859,0 -53081,11293 -71338,29549 -18256,18257 -29548,43479 -29548,71338 0,27859 11292,53080 29548,71337 18257,18257 43479,29549 71338,29549 27859,0 53080,-11292 71337,-29549 18257,-18257 29549,-43478 29549,-71337 0,-27859 -11292,-53081 -29549,-71338z"/>
   <path fill="black" fill-rule="nonzero" d="M198927 11107c25366,0 48332,10283 64956,26906 16624,16624 26906,39590 26906,64957 0,25367 -10282,48333 -26906,64956 -16624,16624 -39590,26907 -64956,26907 -25367,0 -48333,-10283 -64957,-26907 -16623,-16623 -26906,-39589 -26906,-64956 0,-25367 10283,-48333 26906,-64957 16624,-16623 39590,-26906 64957,-26906zm62303 29560c-15945,-15944 -37973,-25806 -62303,-25806 -24331,0 -46359,9862 -62303,25806 -15944,15944 -25806,37972 -25806,62303 0,24331 9862,46359 25806,62303 15944,15944 37972,25806 62303,25806 24330,0 46358,-9862 62303,-25806 15944,-15944 25806,-37972 25806,-62303 0,-24331 -9862,-46359 -25806,-62303z"/>
   <path fill="black" d="M198927 24859c43140,0 78111,34971 78111,78111 0,43139 -34971,78111 -78111,78111 -43140,0 -78111,-34972 -78111,-78111 0,-43140 34971,-78111 78111,-78111zm-58838 53433c9223,-2929 18401,-5123 27536,-6623 1500,-9136 3695,-18314 6624,-27538 -15383,6461 -27700,18777 -34160,34161zm83516 -34161c2954,9306 5163,18566 6664,27782 9224,1549 18409,3739 27558,6531 -6443,-15453 -18788,-27831 -34222,-34313zm39084 60643c-9907,5033 -20069,8957 -30520,11611 670,-8894 724,-17827 125,-26798 10408,2654 20528,6565 30395,11579 17,599 27,1201 27,1804 0,603 -10,1204 -27,1804zm-4861 22721c-9232,2817 -18499,5022 -27806,6572 -1550,9307 -3754,18573 -6570,27803 15505,-6464 27912,-18870 34376,-34375zm-83426 34375c-2792,-9149 -4982,-18334 -6530,-27558 -9217,-1501 -18477,-3710 -27783,-6664 6481,15433 18858,27780 34313,34222zm22863 -122668c-4894,10391 -8578,20505 -11150,30364 8587,-547 17137,-495 25653,122 -2573,-9897 -6266,-20052 -11179,-30486 -552,-14 -1107,-21 -1662,-21 -556,0 -1110,7 -1662,21zm18189 80292c-10713,1271 -21733,1204 -33095,-357 -1215,-10489 -1148,-21271 349,-32382 11112,-1498 21896,-1565 32387,-350 1561,11360 1629,22378 359,33089zm-3113 16716c-8894,671 -17825,726 -26795,127 2654,10408 6563,20528 11577,30395 599,17 1200,27 1804,27 603,0 1204,-10 1804,-27 5034,-9908 8955,-20070 11610,-30522zm-46820 -46049c-9858,2570 -19971,6254 -30362,11146 -14,553 -21,1107 -21,1663 0,556 7,1110 21,1662 10434,4913 20588,8606 30485,11179 -617,-8515 -669,-17064 -123,-25650z"/>
   <path fill="black" d="M200464 2096l-266 22779c-423,-7 -846,-16 -1271,-16 -416,0 -829,9 -1242,15l-211 -22780c483,-6 968,-11 1453,-11 513,0 1025,6 1537,13zm-19091 1511l3956 22434c-823,144 -1642,302 -2456,472l-4423 -22350c969,-199 1944,-385 2923,-556zm-12009 195846l7632 -21498c799,233 1600,458 2409,667l-7184 21660c-958,-263 -1910,-539 -2857,-829zm-17760 -7363l11537 -19674c738,381 1483,751 2235,1109l-11129 19922c-888,-440 -1769,-893 -2643,-1357zm-15832 -10442l15046 -17139c655,513 1320,1013 1992,1505l-14693 17460c-791,-598 -1573,-1206 -2345,-1826zm-13345 -12907l17601 -14468c546,627 1105,1243 1670,1851l-17302 14839c-667,-731 -1324,-1472 -1969,-2222zm-11154 -15790l20112 -10728c422,724 856,1439 1300,2148l-19892 11151c-519,-849 -1026,-1706 -1520,-2571zm-7942 -17654l21763 -6781c273,790 560,1574 858,2353l-21623 7236c-346,-929 -679,-1865 -998,-2808zm-4381 -18734l22635 -2632c117,831 245,1658 387,2481l-22580 3107c-162,-981 -308,-1966 -442,-2956zm-785 -18642l22752 1048c-43,831 -67,1668 -82,2506l-22772 -572c21,-997 54,-1992 102,-2982zm2418 -16477l713 -2905 21804 5623c-201,814 -389,1633 -565,2457l-21952 -5175zm7039 -21440l20528 9890c-355,758 -699,1521 -1030,2291l-20732 -9460c398,-914 810,-1821 1234,-2721zm9969 -16730l18115 13821c-491,676 -975,1359 -1445,2051l-18403 -13442c566,-819 1144,-1628 1733,-2430zm12506 -14063l15493 16700c-611,571 -1216,1150 -1809,1741l-15836 -16371c707,-700 1424,-1391 2152,-2070zm15483 -11886l12111 19299c-709,442 -1411,893 -2104,1356l-12508 -19039c825,-550 1659,-1090 2501,-1616zm14572 -7482l2780 -1105 8157 21233c-784,300 -1565,609 -2337,932l-8600 -21060zm58776 -5775l-3407 22563c-817,-177 -1638,-344 -2464,-494l2931 -22615c985,168 1965,350 2940,546zm18386 5577l-8240 21247c-769,-322 -1545,-629 -2327,-927l7793 -21415c931,352 1856,717 2774,1095zm16852 8892l-12001 19376c-694,-462 -1395,-912 -2103,-1352l11591 -19618c846,520 1684,1051 2513,1594zm14905 11924l-15566 16636c-599,-585 -1207,-1163 -1824,-1729l15212 -16955c736,672 1462,1356 2178,2048zm12144 14128l-18269 13624c-478,-682 -963,-1360 -1463,-2026l17971 -13998c598,791 1185,1591 1761,2400zm9564 16596l-20603 9725c-343,-761 -701,-1513 -1067,-2261l20395 -10155c438,890 863,1787 1275,2691zm6084 17475l-22010 5912c-196,-811 -404,-1617 -625,-2418l21878 -6371c266,954 519,1913 757,2877zm2813 19025l-22761 932c-46,-834 -107,-1663 -179,-2490l22743 -1408c79,985 146,1974 197,2966zm-1731 24698l-22415 -4087c162,-813 309,-1631 446,-2453l22495 3617c-161,979 -337,1954 -526,2923zm-5362 18158l-20988 -8871c305,-770 594,-1548 875,-2331l21179 8433c-342,930 -698,1852 -1066,2769zm-8492 16534l-19017 -12552c444,-704 876,-1416 1297,-2135l19280 12155c-508,852 -1028,1696 -1560,2532zm-11261 14570l-16305 -15917c563,-615 1116,-1238 1659,-1870l16640 15577c-654,746 -1318,1483 -1994,2210zm-14130 12603l-13130 -18618c667,-498 1324,-1008 1974,-1526l13523 18347c-780,610 -1569,1209 -2367,1797zm-15476 9386l-9902 -20519c748,-368 1489,-748 2224,-1138l10332 20310c-877,462 -1762,910 -2654,1347zm-17668 6669l-5465 -22126c806,-227 1606,-466 2401,-718l5928 22015c-948,290 -1903,567 -2864,829zm-19216 3283l-1259 -22746c834,-65 1663,-147 2489,-238l1736 22726c-984,100 -1973,186 -2966,258zm-17497 -229l1905 -22701c822,85 1648,156 2478,216l-1430 22734c-988,-69 -1972,-152 -2953,-249z"/>
  </g>
 </g>
</svg>
